<svg width="23" height="21" viewBox="0 0 23 21" fill="none" xmlns="http://www.w3.org/2000/svg">
<path d="M20.3186 2.60988C19.8078 2.09888 19.2014 1.69352 18.534 1.41696C17.8665 1.1404 17.1511 0.998047 16.4286 0.998047C15.7061 0.998047 14.9907 1.1404 14.3232 1.41696C13.6558 1.69352 13.0494 2.09888 12.5386 2.60988L11.4786 3.66988L10.4186 2.60988C9.38693 1.57818 7.98766 0.998587 6.52863 0.998587C5.06959 0.998587 3.67032 1.57818 2.63863 2.60988C1.60693 3.64157 1.02734 5.04084 1.02734 6.49988C1.02734 7.95891 1.60693 9.35816 2.63863 10.3899L3.69863 11.4499L11.4786 19.2299L19.2586 11.4499L20.3186 10.3899C20.8296 9.87916 21.2349 9.27266 21.5115 8.60526C21.7881 7.93777 21.9304 7.22236 21.9304 6.49988C21.9304 5.77739 21.7881 5.06198 21.5115 4.39452C21.2349 3.72706 20.8296 3.12063 20.3186 2.60988Z" fill="white" stroke="#A5B1BB" stroke-width="2" stroke-linecap="round" stroke-linejoin="round"/>
</svg>
